{
	"asset":{
		"generator":"Khronos glTF Blender I/O v4.0.44",
		"version":"2.0"
	},
	"extensionsUsed":[
		"KHR_materials_emissive_strength"
	],
	"scene":0,
	"scenes":[
		{
			"name":"Scene",
			"nodes":[
				0,
				1,
				2,
				3,
				4
			]
		}
	],
	"nodes":[
		{
			"mesh":0,
			"name":"SpaceSuit.smd",
			"translation":[
				-1,
				0,
				0
			]
		},
		{
			"mesh":1,
			"name":"bodies/reference_RD.smd",
			"translation":[
				-1,
				0,
				0
			]
		},
		{
			"mesh":2,
			"name":"manes/mane_AJ.smd",
			"translation":[
				-1,
				0,
				0
			]
		},
		{
			"mesh":3,
			"name":"tails/tail_flitter.smd",
			"translation":[
				-1,
				0,
				0
			]
		},
		{
			"mesh":4,
			"name":"accesSories/lense.smd",
			"translation":[
				-1,
				0,
				0
			]
		}
	],
	"materials":[
		{
			"doubleSided":true,
			"emissiveFactor":[
				0,
				1,
				0.8049119794902002
			],
			"extensions":{
				"KHR_materials_emissive_strength":{
					"emissiveStrength":1.4601682126522064
				}
			},
			"name":"BluePip",
			"pbrMetallicRoughness":{
				"baseColorFactor":[
					0,
					0.973445475101471,
					0.7835379242897034,
					1
				],
				"metallicFactor":0,
				"roughnessFactor":0.5
			}
		},
		{
			"doubleSided":true,
			"name":"SpaceSuit",
			"pbrMetallicRoughness":{
				"baseColorTexture":{
					"index":0
				},
				"metallicFactor":0,
				"roughnessFactor":0.5
			}
		},
		{
			"doubleSided":true,
			"name":"body",
			"pbrMetallicRoughness":{
				"baseColorTexture":{
					"index":1
				},
				"metallicFactor":0,
				"roughnessFactor":0.5
			}
		},
		{
			"doubleSided":true,
			"name":"eyeball_l",
			"pbrMetallicRoughness":{
				"baseColorTexture":{
					"index":2
				},
				"metallicFactor":0,
				"roughnessFactor":0.5
			}
		},
		{
			"doubleSided":true,
			"name":"eyeball_r",
			"pbrMetallicRoughness":{
				"baseColorTexture":{
					"index":3
				},
				"metallicFactor":0,
				"roughnessFactor":0.5
			}
		},
		{
			"doubleSided":true,
			"name":"teeth",
			"pbrMetallicRoughness":{
				"baseColorFactor":[
					0.9386858940124512,
					0.973445475101471,
					0.9386858940124512,
					1
				],
				"metallicFactor":0,
				"roughnessFactor":0.07800000160932541
			}
		},
		{
			"doubleSided":true,
			"name":"tongue",
			"pbrMetallicRoughness":{
				"baseColorFactor":[
					0.830769956111908,
					0.22696588933467865,
					0.04373502731323242,
					1
				],
				"metallicFactor":0,
				"roughnessFactor":0.10000000149011612
			}
		},
		{
			"doubleSided":true,
			"name":"eyelashes",
			"pbrMetallicRoughness":{
				"baseColorFactor":[
					0,
					0,
					0,
					1
				],
				"metallicFactor":0,
				"roughnessFactor":0.07800000160932541
			}
		},
		{
			"doubleSided":true,
			"name":"mane",
			"pbrMetallicRoughness":{
				"baseColorTexture":{
					"index":4
				},
				"metallicFactor":0,
				"roughnessFactor":0.5
			}
		},
		{
			"doubleSided":true,
			"name":"tail.001",
			"pbrMetallicRoughness":{
				"baseColorTexture":{
					"index":5
				},
				"metallicFactor":0,
				"roughnessFactor":0.5
			}
		},
		{
			"alphaMode":"BLEND",
			"doubleSided":true,
			"name":"Lense",
			"pbrMetallicRoughness":{
				"baseColorTexture":{
					"index":6
				},
				"metallicFactor":0,
				"roughnessFactor":0.5
			}
		}
	],
	"meshes":[
		{
			"name":"Female_SpaceSuit.mdl_model_SpaceSuit.smd_MESH",
			"primitives":[
				{
					"attributes":{
						"POSITION":0,
						"NORMAL":1,
						"TEXCOORD_0":2
					},
					"indices":3,
					"material":0
				},
				{
					"attributes":{
						"POSITION":4,
						"NORMAL":5,
						"TEXCOORD_0":6
					},
					"indices":7,
					"material":1
				}
			]
		},
		{
			"name":"VN_applejack.mdl_model_bodies/reference_RD.smd_MESH",
			"primitives":[
				{
					"attributes":{
						"POSITION":8,
						"NORMAL":9,
						"TEXCOORD_0":10
					},
					"indices":11,
					"material":2
				},
				{
					"attributes":{
						"POSITION":12,
						"NORMAL":13,
						"TEXCOORD_0":14
					},
					"indices":15,
					"material":3
				},
				{
					"attributes":{
						"POSITION":16,
						"NORMAL":17,
						"TEXCOORD_0":18
					},
					"indices":19,
					"material":4
				},
				{
					"attributes":{
						"POSITION":20,
						"NORMAL":21,
						"TEXCOORD_0":22
					},
					"indices":23,
					"material":5
				},
				{
					"attributes":{
						"POSITION":24,
						"NORMAL":25,
						"TEXCOORD_0":26
					},
					"indices":27,
					"material":6
				},
				{
					"attributes":{
						"POSITION":28,
						"NORMAL":29,
						"TEXCOORD_0":30
					},
					"indices":31,
					"material":7
				}
			]
		},
		{
			"name":"VN_applejack.mdl_mane_manes/mane_AJ.smd_MESH",
			"primitives":[
				{
					"attributes":{
						"POSITION":32,
						"NORMAL":33,
						"TEXCOORD_0":34
					},
					"indices":35,
					"material":8
				}
			]
		},
		{
			"name":"VN_flitter.mdl_tail_tails/tail_flitter.smd_MESH",
			"primitives":[
				{
					"attributes":{
						"POSITION":36,
						"NORMAL":37,
						"TEXCOORD_0":38
					},
					"indices":39,
					"material":9
				}
			]
		},
		{
			"name":"Female_SpaceSuit.mdl_Lense_accesSories/lense.smd_MESH",
			"primitives":[
				{
					"attributes":{
						"POSITION":40,
						"NORMAL":41,
						"TEXCOORD_0":42
					},
					"indices":43,
					"material":10
				}
			]
		}
	],
	"textures":[
		{
			"sampler":0,
			"source":0
		},
		{
			"sampler":0,
			"source":1
		},
		{
			"sampler":0,
			"source":2
		},
		{
			"sampler":0,
			"source":3
		},
		{
			"sampler":0,
			"source":4
		},
		{
			"sampler":0,
			"source":5
		},
		{
			"sampler":0,
			"source":6
		}
	],
	"images":[
		{
			"mimeType":"image/png",
			"name":"SpaceSuit",
			"uri":"SpaceSuit.png"
		},
		{
			"mimeType":"image/png",
			"name":"body",
			"uri":"body.png"
		},
		{
			"mimeType":"image/png",
			"name":"pupil_l",
			"uri":"pupil_l.png"
		},
		{
			"mimeType":"image/png",
			"name":"pupil_r",
			"uri":"pupil_r.png"
		},
		{
			"mimeType":"image/png",
			"name":"mane",
			"uri":"mane.png"
		},
		{
			"mimeType":"image/png",
			"name":"tail",
			"uri":"tail.png"
		},
		{
			"mimeType":"image/png",
			"name":"Lense",
			"uri":"Lense.png"
		}
	],
	"accessors":[
		{
			"bufferView":0,
			"componentType":5126,
			"count":2372,
			"max":[
				1.1158900260925293,
				0.30036646127700806,
				0.12248729914426804
			],
			"min":[
				0.8839468359947205,
				0.22644422948360443,
				-0.1974039077758789
			],
			"type":"VEC3"
		},
		{
			"bufferView":1,
			"componentType":5126,
			"count":2372,
			"type":"VEC3"
		},
		{
			"bufferView":2,
			"componentType":5126,
			"count":2372,
			"type":"VEC2"
		},
		{
			"bufferView":3,
			"componentType":5123,
			"count":13824,
			"type":"SCALAR"
		},
		{
			"bufferView":4,
			"componentType":5126,
			"count":7193,
			"max":[
				1.2105251550674438,
				1.0485737323760986,
				0.4557243585586548
			],
			"min":[
				0.7888225317001343,
				-0.008163693360984325,
				-0.2618109881877899
			],
			"type":"VEC3"
		},
		{
			"bufferView":5,
			"componentType":5126,
			"count":7193,
			"type":"VEC3"
		},
		{
			"bufferView":6,
			"componentType":5126,
			"count":7193,
			"type":"VEC2"
		},
		{
			"bufferView":7,
			"componentType":5123,
			"count":38682,
			"type":"SCALAR"
		},
		{
			"bufferView":8,
			"componentType":5126,
			"count":2150,
			"max":[
				1.1980818510055542,
				1.0216325521469116,
				0.4748069941997528
			],
			"min":[
				0.8019047975540161,
				0.5294488072395325,
				0.06692761182785034
			],
			"type":"VEC3"
		},
		{
			"bufferView":9,
			"componentType":5126,
			"count":2150,
			"type":"VEC3"
		},
		{
			"bufferView":10,
			"componentType":5126,
			"count":2150,
			"type":"VEC2"
		},
		{
			"bufferView":11,
			"componentType":5123,
			"count":11439,
			"type":"SCALAR"
		},
		{
			"bufferView":12,
			"componentType":5126,
			"count":986,
			"max":[
				1.150641679763794,
				0.8635268807411194,
				0.38890108466148376
			],
			"min":[
				1.0335642099380493,
				0.6585661172866821,
				0.2648056149482727
			],
			"type":"VEC3"
		},
		{
			"bufferView":13,
			"componentType":5126,
			"count":986,
			"type":"VEC3"
		},
		{
			"bufferView":14,
			"componentType":5126,
			"count":986,
			"type":"VEC2"
		},
		{
			"bufferView":15,
			"componentType":5123,
			"count":5280,
			"type":"SCALAR"
		},
		{
			"bufferView":16,
			"componentType":5126,
			"count":984,
			"max":[
				0.9664243459701538,
				0.8635268807411194,
				0.38890108466148376
			],
			"min":[
				0.8493468761444092,
				0.6585661172866821,
				0.2648056149482727
			],
			"type":"VEC3"
		},
		{
			"bufferView":17,
			"componentType":5126,
			"count":984,
			"type":"VEC3"
		},
		{
			"bufferView":18,
			"componentType":5126,
			"count":984,
			"type":"VEC2"
		},
		{
			"bufferView":19,
			"componentType":5123,
			"count":5280,
			"type":"SCALAR"
		},
		{
			"bufferView":20,
			"componentType":5126,
			"count":762,
			"max":[
				1.0648366212844849,
				0.6881659030914307,
				0.44194766879081726
			],
			"min":[
				0.9351728558540344,
				0.6196032762527466,
				0.3221975266933441
			],
			"type":"VEC3"
		},
		{
			"bufferView":21,
			"componentType":5126,
			"count":762,
			"type":"VEC3"
		},
		{
			"bufferView":22,
			"componentType":5126,
			"count":762,
			"type":"VEC2"
		},
		{
			"bufferView":23,
			"componentType":5123,
			"count":4224,
			"type":"SCALAR"
		},
		{
			"bufferView":24,
			"componentType":5126,
			"count":487,
			"max":[
				1.0344533920288086,
				0.6596167683601379,
				0.39337295293807983
			],
			"min":[
				0.9657272696495056,
				0.6285753846168518,
				0.26879996061325073
			],
			"type":"VEC3"
		},
		{
			"bufferView":25,
			"componentType":5126,
			"count":487,
			"type":"VEC3"
		},
		{
			"bufferView":26,
			"componentType":5126,
			"count":487,
			"type":"VEC2"
		},
		{
			"bufferView":27,
			"componentType":5123,
			"count":2784,
			"type":"SCALAR"
		},
		{
			"bufferView":28,
			"componentType":5126,
			"count":509,
			"max":[
				1.180626392364502,
				0.8697163462638855,
				0.2975735068321228
			],
			"min":[
				0.8193774223327637,
				0.8096612095832825,
				0.2608413100242615
			],
			"type":"VEC3"
		},
		{
			"bufferView":29,
			"componentType":5126,
			"count":509,
			"type":"VEC3"
		},
		{
			"bufferView":30,
			"componentType":5126,
			"count":509,
			"type":"VEC2"
		},
		{
			"bufferView":31,
			"componentType":5123,
			"count":2232,
			"type":"SCALAR"
		},
		{
			"bufferView":32,
			"componentType":5126,
			"count":1860,
			"max":[
				1.179141640663147,
				0.9965055584907532,
				0.4239155650138855
			],
			"min":[
				0.821331262588501,
				0.6331807374954224,
				0.13674548268318176
			],
			"type":"VEC3"
		},
		{
			"bufferView":33,
			"componentType":5126,
			"count":1860,
			"type":"VEC3"
		},
		{
			"bufferView":34,
			"componentType":5126,
			"count":1860,
			"type":"VEC2"
		},
		{
			"bufferView":35,
			"componentType":5123,
			"count":1860,
			"type":"SCALAR"
		},
		{
			"bufferView":36,
			"componentType":5126,
			"count":844,
			"max":[
				1.042236328125,
				0.6920896768569946,
				-0.08638603985309601
			],
			"min":[
				0.8565670847892761,
				0.08200348913669586,
				-0.5565094351768494
			],
			"type":"VEC3"
		},
		{
			"bufferView":37,
			"componentType":5126,
			"count":844,
			"type":"VEC3"
		},
		{
			"bufferView":38,
			"componentType":5126,
			"count":844,
			"type":"VEC2"
		},
		{
			"bufferView":39,
			"componentType":5123,
			"count":4758,
			"type":"SCALAR"
		},
		{
			"bufferView":40,
			"componentType":5126,
			"count":4693,
			"max":[
				1.1964956521987915,
				0.987932026386261,
				0.5009040832519531
			],
			"min":[
				0.803504467010498,
				0.6000891327857971,
				0.17674081027507782
			],
			"type":"VEC3"
		},
		{
			"bufferView":41,
			"componentType":5126,
			"count":4693,
			"type":"VEC3"
		},
		{
			"bufferView":42,
			"componentType":5126,
			"count":4693,
			"type":"VEC2"
		},
		{
			"bufferView":43,
			"componentType":5123,
			"count":27504,
			"type":"SCALAR"
		}
	],
	"bufferViews":[
		{
			"buffer":0,
			"byteLength":28464,
			"byteOffset":0,
			"target":34962
		},
		{
			"buffer":0,
			"byteLength":28464,
			"byteOffset":28464,
			"target":34962
		},
		{
			"buffer":0,
			"byteLength":18976,
			"byteOffset":56928,
			"target":34962
		},
		{
			"buffer":0,
			"byteLength":27648,
			"byteOffset":75904,
			"target":34963
		},
		{
			"buffer":0,
			"byteLength":86316,
			"byteOffset":103552,
			"target":34962
		},
		{
			"buffer":0,
			"byteLength":86316,
			"byteOffset":189868,
			"target":34962
		},
		{
			"buffer":0,
			"byteLength":57544,
			"byteOffset":276184,
			"target":34962
		},
		{
			"buffer":0,
			"byteLength":77364,
			"byteOffset":333728,
			"target":34963
		},
		{
			"buffer":0,
			"byteLength":25800,
			"byteOffset":411092,
			"target":34962
		},
		{
			"buffer":0,
			"byteLength":25800,
			"byteOffset":436892,
			"target":34962
		},
		{
			"buffer":0,
			"byteLength":17200,
			"byteOffset":462692,
			"target":34962
		},
		{
			"buffer":0,
			"byteLength":22878,
			"byteOffset":479892,
			"target":34963
		},
		{
			"buffer":0,
			"byteLength":11832,
			"byteOffset":502772,
			"target":34962
		},
		{
			"buffer":0,
			"byteLength":11832,
			"byteOffset":514604,
			"target":34962
		},
		{
			"buffer":0,
			"byteLength":7888,
			"byteOffset":526436,
			"target":34962
		},
		{
			"buffer":0,
			"byteLength":10560,
			"byteOffset":534324,
			"target":34963
		},
		{
			"buffer":0,
			"byteLength":11808,
			"byteOffset":544884,
			"target":34962
		},
		{
			"buffer":0,
			"byteLength":11808,
			"byteOffset":556692,
			"target":34962
		},
		{
			"buffer":0,
			"byteLength":7872,
			"byteOffset":568500,
			"target":34962
		},
		{
			"buffer":0,
			"byteLength":10560,
			"byteOffset":576372,
			"target":34963
		},
		{
			"buffer":0,
			"byteLength":9144,
			"byteOffset":586932,
			"target":34962
		},
		{
			"buffer":0,
			"byteLength":9144,
			"byteOffset":596076,
			"target":34962
		},
		{
			"buffer":0,
			"byteLength":6096,
			"byteOffset":605220,
			"target":34962
		},
		{
			"buffer":0,
			"byteLength":8448,
			"byteOffset":611316,
			"target":34963
		},
		{
			"buffer":0,
			"byteLength":5844,
			"byteOffset":619764,
			"target":34962
		},
		{
			"buffer":0,
			"byteLength":5844,
			"byteOffset":625608,
			"target":34962
		},
		{
			"buffer":0,
			"byteLength":3896,
			"byteOffset":631452,
			"target":34962
		},
		{
			"buffer":0,
			"byteLength":5568,
			"byteOffset":635348,
			"target":34963
		},
		{
			"buffer":0,
			"byteLength":6108,
			"byteOffset":640916,
			"target":34962
		},
		{
			"buffer":0,
			"byteLength":6108,
			"byteOffset":647024,
			"target":34962
		},
		{
			"buffer":0,
			"byteLength":4072,
			"byteOffset":653132,
			"target":34962
		},
		{
			"buffer":0,
			"byteLength":4464,
			"byteOffset":657204,
			"target":34963
		},
		{
			"buffer":0,
			"byteLength":22320,
			"byteOffset":661668,
			"target":34962
		},
		{
			"buffer":0,
			"byteLength":22320,
			"byteOffset":683988,
			"target":34962
		},
		{
			"buffer":0,
			"byteLength":14880,
			"byteOffset":706308,
			"target":34962
		},
		{
			"buffer":0,
			"byteLength":3720,
			"byteOffset":721188,
			"target":34963
		},
		{
			"buffer":0,
			"byteLength":10128,
			"byteOffset":724908,
			"target":34962
		},
		{
			"buffer":0,
			"byteLength":10128,
			"byteOffset":735036,
			"target":34962
		},
		{
			"buffer":0,
			"byteLength":6752,
			"byteOffset":745164,
			"target":34962
		},
		{
			"buffer":0,
			"byteLength":9516,
			"byteOffset":751916,
			"target":34963
		},
		{
			"buffer":0,
			"byteLength":56316,
			"byteOffset":761432,
			"target":34962
		},
		{
			"buffer":0,
			"byteLength":56316,
			"byteOffset":817748,
			"target":34962
		},
		{
			"buffer":0,
			"byteLength":37544,
			"byteOffset":874064,
			"target":34962
		},
		{
			"buffer":0,
			"byteLength":55008,
			"byteOffset":911608,
			"target":34963
		}
	],
	"samplers":[
		{
			"magFilter":9729,
			"minFilter":9987
		}
	],
	"buffers":[
		{
			"byteLength":966616,
			"uri":"space_pony.bin"
		}
	]
}
